<?xml version="1.0" encoding="UTF-8"?>
<svg width="128" height="128" viewBox="0 0 128 128" fill="none" xmlns="http://www.w3.org/2000/svg">
  <rect width="128" height="128" rx="25.6" fill="#4A6BFF"/>
  <path d="M64 24C42.4 24 24 42.4 24 64C24 85.6 42.4 104 64 104C85.6 104 104 85.6 104 64C104 52.8 100 42.8 93.6 35.2L88 40.8C93.2 47.2 96 55.2 96 64C96 82.4 82.4 96 64 96C45.6 96 32 82.4 32 64C32 45.6 45.6 32 64 32C71.2 32 77.6 34 83.2 37.6L90.4 30.4C83.2 25.2 74.4 22.4 64.8 22.4L64 24Z" fill="white"/>
  <path d="M64 48C55.2 48 48 55.2 48 64C48 72.8 55.2 80 64 80C72.8 80 80 72.8 80 64C80 55.2 72.8 48 64 48ZM64 72C58.4 72 54 67.6 54 62C54 56.4 58.4 52 64 52C69.6 52 74 56.4 74 62C74 67.6 69.6 72 64 72Z" fill="white"/>
</svg>
